<svg width="25" height="22" viewBox="0 0 25 22" fill="none" xmlns="http://www.w3.org/2000/svg">
<g id="&#240;&#159;&#166;&#134; icon &#34;shopping-cart&#34;">
<path id="Vector" d="M22.3024 12.7824L24.2987 3.95872C24.4428 3.32164 23.9608 2.71497 23.3104 2.71497H6.72331L6.33624 0.814067C6.23978 0.340262 5.82475 0 5.34329 0H1.01351C0.453759 0 0 0.455818 0 1.01811V1.69686C0 2.25915 0.453759 2.71497 1.01351 2.71497H3.96465L6.93121 17.284C6.2215 17.694 5.74325 18.4627 5.74325 19.3442C5.74325 20.6562 6.80203 21.7198 8.10811 21.7198C9.41419 21.7198 10.473 20.6562 10.473 19.3442C10.473 18.6793 10.2007 18.0785 9.7625 17.6473H18.6158C18.1777 18.0785 17.9054 18.6793 17.9054 19.3442C17.9054 20.6562 18.9642 21.7198 20.2703 21.7198C21.5764 21.7198 22.6351 20.6562 22.6351 19.3442C22.6351 18.4036 22.0909 17.5908 21.3016 17.2059L21.5345 16.1761C21.6787 15.539 21.1966 14.9323 20.5462 14.9323H9.21103L8.93463 13.5749H21.3141C21.7873 13.5749 22.1975 13.2459 22.3024 12.7824Z" fill="#EDEDE9"/>
</g>
</svg>
