<svg width="6" height="6" viewBox="0 0 6 6" fill="none" xmlns="http://www.w3.org/2000/svg">
<g id="Social Icons" clip-path="url(#clip0_1_4936)">
<path id="Vector" d="M2.71484 0.948914C1.3665 0.948914 0.273438 2.04198 0.273438 3.39032C0.273438 4.53524 1.06172 5.49598 2.1251 5.75985V4.13641H1.62168V3.39032H2.1251V3.06884C2.1251 2.23788 2.50117 1.85272 3.31699 1.85272C3.47168 1.85272 3.73857 1.88309 3.84775 1.91337V2.58964C3.79014 2.58358 3.69004 2.58055 3.56572 2.58055C3.16543 2.58055 3.01074 2.73221 3.01074 3.12645V3.39032H3.8082L3.67119 4.13641H3.01074V5.81386C4.21963 5.66786 5.15635 4.63856 5.15635 3.39032C5.15625 2.04198 4.06318 0.948914 2.71484 0.948914Z" fill="white"/>
</g>
<defs>
<clipPath id="clip0_1_4936">
<rect width="4.88281" height="4.88281" fill="white" transform="translate(0.273438 0.948914)"/>
</clipPath>
</defs>
</svg>
