<svg width="5" height="6" viewBox="0 0 5 6" fill="none" xmlns="http://www.w3.org/2000/svg">
<g id="Vector">
<path id="Vector_2" d="M2.54688 2.94647V3.89196H3.86079C3.8031 4.19603 3.62996 4.4535 3.37028 4.62661L4.16263 5.24141C4.62427 4.81528 4.89061 4.18939 4.89061 3.44587C4.89061 3.27276 4.87508 3.10629 4.84622 2.9465L2.54688 2.94647Z" fill="white"/>
<path id="Vector_3" d="M1.17857 3.85504L0.999866 3.99184L0.36731 4.48455C0.769031 5.28133 1.59239 5.83176 2.54675 5.83176C3.20591 5.83176 3.75855 5.61425 4.1625 5.24139L3.37016 4.6266C3.15265 4.77308 2.87522 4.86187 2.54675 4.86187C1.91199 4.86187 1.37267 4.43352 1.17957 3.85645L1.17857 3.85504Z" fill="white"/>
<path id="Vector_4" d="M0.367346 2.2962C0.200896 2.62467 0.105469 2.99533 0.105469 3.39038C0.105469 3.78544 0.200896 4.1561 0.367346 4.48456C0.367346 4.48677 1.17968 3.85424 1.17968 3.85424C1.13085 3.70775 1.10199 3.5524 1.10199 3.39036C1.10199 3.22832 1.13085 3.07296 1.17968 2.92648L0.367346 2.2962Z" fill="white"/>
<path id="Vector_5" d="M2.5468 1.9211C2.90636 1.9211 3.22595 2.04538 3.48119 2.28509L4.18032 1.58597C3.7564 1.19091 3.20599 0.948975 2.5468 0.948975C1.59244 0.948975 0.769031 1.49718 0.36731 2.29619L1.17962 2.92652C1.3727 2.34945 1.91204 1.9211 2.5468 1.9211Z" fill="white"/>
</g>
</svg>
