<svg width="16" height="15" viewBox="0 0 16 15" fill="none" xmlns="http://www.w3.org/2000/svg">
<g id="&#240;&#159;&#166;&#134; icon &#34;hurt&#34;">
<path id="Vector" d="M6.84203 3.29852L7.6 4.17929L8.35797 3.29852C8.80942 2.77392 9.1966 2.39472 9.64354 2.1353C10.0711 1.88709 10.6089 1.71741 11.4 1.71741C12.12 1.71741 12.7757 1.95526 13.2641 2.50632C13.7632 3.06939 14.2 4.08705 14.2 5.86193C14.2 6.54208 13.843 7.78395 12.7332 9.28624C11.7062 10.6764 10.0673 12.2415 7.6 13.7086C5.13265 12.2415 3.49377 10.6764 2.46683 9.28624C1.35703 7.78395 1 6.54208 1 5.86193C1 4.08705 1.43685 3.06939 1.93588 2.50632C2.42428 1.95526 3.08 1.71741 3.8 1.71741C4.5911 1.71741 5.12886 1.88709 5.55646 2.1353C6.0034 2.39472 6.39058 2.77392 6.84203 3.29852Z" stroke="#FB8500" stroke-width="2"/>
</g>
</svg>
