<svg width="6" height="6" viewBox="0 0 6 6" fill="none" xmlns="http://www.w3.org/2000/svg">
<g id="Social Icons" clip-path="url(#clip0_1_4938)">
<path id="Vector" d="M3.26953 1.38862C3.92184 1.38862 3.99909 1.39148 4.25563 1.40292C4.49405 1.41341 4.6228 1.45347 4.70863 1.48685C4.82211 1.53072 4.90413 1.58412 4.98901 1.669C5.07484 1.75483 5.12729 1.83589 5.17116 1.94938C5.20454 2.03521 5.24459 2.16491 5.25508 2.40237C5.26653 2.65987 5.26939 2.73711 5.26939 3.38847C5.26939 4.04079 5.26653 4.11803 5.25508 4.37457C5.24459 4.61299 5.20454 4.74174 5.17116 4.82757C5.12729 4.94106 5.07388 5.02307 4.98901 5.10795C4.90318 5.19378 4.82211 5.24623 4.70863 5.2901C4.6228 5.32348 4.4931 5.36353 4.25563 5.37402C3.99814 5.38547 3.92089 5.38833 3.26953 5.38833C2.61722 5.38833 2.53997 5.38547 2.28343 5.37402C2.04501 5.36353 1.91627 5.32348 1.83044 5.2901C1.71695 5.24623 1.63493 5.19283 1.55006 5.10795C1.46423 5.02212 1.41177 4.94106 1.3679 4.82757C1.33453 4.74174 1.29447 4.61204 1.28398 4.37457C1.27254 4.11708 1.26968 4.03983 1.26968 3.38847C1.26968 2.73616 1.27254 2.65891 1.28398 2.40237C1.29447 2.16396 1.33453 2.03521 1.3679 1.94938C1.41177 1.83589 1.46518 1.75388 1.55006 1.669C1.63589 1.58317 1.71695 1.53072 1.83044 1.48685C1.91627 1.45347 2.04597 1.41341 2.28343 1.40292C2.53997 1.39148 2.61722 1.38862 3.26953 1.38862ZM3.26953 0.948975C2.60673 0.948975 2.52376 0.951836 2.2634 0.96328C2.00401 0.974724 1.82567 1.01669 1.67117 1.07677C1.51 1.13971 1.37363 1.22268 1.23821 1.35905C1.10183 1.49448 1.01886 1.63085 0.955917 1.79107C0.895836 1.94652 0.853874 2.1239 0.84243 2.3833C0.830986 2.64461 0.828125 2.72758 0.828125 3.39038C0.828125 4.05318 0.830986 4.13615 0.84243 4.39651C0.853874 4.65591 0.895836 4.83424 0.955917 4.98874C1.01886 5.14991 1.10183 5.28629 1.23821 5.42171C1.37363 5.55713 1.51 5.64105 1.67022 5.70304C1.82567 5.76312 2.00305 5.80508 2.26245 5.81653C2.5228 5.82797 2.60577 5.83083 3.26858 5.83083C3.93138 5.83083 4.01435 5.82797 4.2747 5.81653C4.5341 5.80508 4.71244 5.76312 4.86694 5.70304C5.02715 5.64105 5.16353 5.55713 5.29895 5.42171C5.43437 5.28629 5.5183 5.14991 5.58028 4.98969C5.64037 4.83424 5.68233 4.65686 5.69377 4.39746C5.70522 4.13711 5.70808 4.05414 5.70808 3.39133C5.70808 2.72853 5.70522 2.64556 5.69377 2.38521C5.68233 2.12581 5.64037 1.94747 5.58028 1.79298C5.5202 1.63085 5.43723 1.49448 5.30086 1.35905C5.16544 1.22363 5.02906 1.13971 4.86884 1.07772C4.71339 1.01764 4.53601 0.975677 4.27661 0.964233C4.0153 0.951836 3.93234 0.948975 3.26953 0.948975Z" fill="white"/>
<path id="Vector_2" d="M3.26958 2.13629C2.57722 2.13629 2.0155 2.69801 2.0155 3.39037C2.0155 4.08274 2.57722 4.64445 3.26958 4.64445C3.96195 4.64445 4.52367 4.08274 4.52367 3.39037C4.52367 2.69801 3.96195 2.13629 3.26958 2.13629ZM3.26958 4.20386C2.8204 4.20386 2.4561 3.83955 2.4561 3.39037C2.4561 2.94119 2.8204 2.57689 3.26958 2.57689C3.71877 2.57689 4.08307 2.94119 4.08307 3.39037C4.08307 3.83955 3.71877 4.20386 3.26958 4.20386Z" fill="white"/>
<path id="Vector_3" d="M4.86595 2.08672C4.86595 2.24885 4.73434 2.3795 4.57317 2.3795C4.41105 2.3795 4.2804 2.24789 4.2804 2.08672C4.2804 1.9246 4.412 1.79395 4.57317 1.79395C4.73434 1.79395 4.86595 1.92555 4.86595 2.08672Z" fill="white"/>
</g>
<defs>
<clipPath id="clip0_1_4938">
<rect width="4.88281" height="4.88281" fill="white" transform="translate(0.828125 0.948975)"/>
</clipPath>
</defs>
</svg>
