<svg width="26" height="26" viewBox="0 0 26 26" fill="none" xmlns="http://www.w3.org/2000/svg">
<g id="Group 17797">
<rect id="Rectangle 18" x="25.5693" y="25.9132" width="25.5693" height="25.5693" rx="12.7847" transform="rotate(180 25.5693 25.9132)" fill="#09264A"/>
<path id="Vector" d="M13.1712 13.8074L15.7676 11.8717L15.7676 11.8717L15.7687 11.8709C15.9848 11.7089 16.1745 11.4274 16.1147 11.0741C16.0584 10.7417 15.8094 10.5273 15.5813 10.4148C15.3445 10.298 15.0672 10.2535 14.8063 10.2703C14.5477 10.2869 14.2765 10.3659 14.063 10.5258C14.0629 10.5259 14.0628 10.526 14.0627 10.5261L10.5646 13.1416L10.5636 13.1424C10.3802 13.2803 10.213 13.5044 10.2083 13.797C10.1918 14.0794 10.3317 14.3131 10.5062 14.4658L10.5221 14.4797L10.5391 14.4922L14.0035 17.0478C14.1158 17.1339 14.243 17.1959 14.3716 17.2381L14.5235 16.7632L14.3716 17.2381C14.5033 17.2812 14.6423 17.3056 14.7806 17.3125C14.9191 17.3194 15.0596 17.3091 15.1947 17.281C15.326 17.2537 15.4559 17.2089 15.5749 17.1442C15.6894 17.0856 15.8006 17.0062 15.8919 16.9016C15.9867 16.7932 16.0623 16.6546 16.088 16.491C16.1142 16.3245 16.0839 16.1613 16.0115 16.0184C15.9413 15.8797 15.8377 15.7716 15.7275 15.6909C15.7272 15.6906 15.7269 15.6904 15.7266 15.6902L13.1712 13.8074Z" fill="#EDEDE9" stroke="#EDEDE9"/>
</g>
</svg>
