<svg width="26" height="26" viewBox="0 0 26 26" fill="none" xmlns="http://www.w3.org/2000/svg">
<g id="Group 17796">
<rect id="Rectangle 18" x="0.0328979" y="0.343872" width="25.5693" height="25.5693" rx="12.7847" fill="#09264A"/>
<path id="Vector" d="M12.0801 17.4338C12.3298 17.4151 12.5876 17.3259 12.7864 17.1523C12.7864 17.1523 12.7865 17.1522 12.7866 17.1521L15.8345 14.4957L15.8356 14.4948C16.0087 14.3431 16.1394 14.1204 16.1427 13.8551C16.1558 13.6009 16.0492 13.3752 15.8896 13.2125L15.8746 13.1972L15.8583 13.1832L12.8401 10.588C12.7369 10.4959 12.6178 10.4276 12.4947 10.3806L12.3201 10.843L12.4947 10.3806C12.369 10.3325 12.2358 10.3053 12.103 10.2975C11.9701 10.2898 11.8353 10.3014 11.7057 10.3328C11.58 10.3632 11.4567 10.4129 11.3448 10.4838C11.2365 10.5485 11.1354 10.634 11.0546 10.7416L11.4553 11.043L11.0546 10.7416C10.9708 10.8534 10.9103 10.9878 10.89 11.1378C10.8697 11.2889 10.8925 11.4388 10.9517 11.5749L11.4101 11.3778L10.9517 11.5749C11.01 11.709 11.099 11.8202 11.2011 11.9073C11.2014 11.9076 11.2017 11.9078 11.202 11.9081L13.4635 13.8504L11.1677 15.8453L11.1677 15.8453L11.1667 15.8463C10.9627 16.0245 10.8209 16.2992 10.8667 16.6145C10.9112 16.9209 11.1153 17.1447 11.3391 17.2733C11.5637 17.4023 11.8291 17.4526 12.0801 17.4338Z" fill="#EDEDE9" stroke="#EDEDE9"/>
</g>
</svg>
