<svg width="34" height="27" viewBox="0 0 34 27" fill="none" xmlns="http://www.w3.org/2000/svg">
<g id="Search">
<g id="Group 17857">
<rect id="Rectangle 7" width="34" height="27" rx="10" fill="#EDEDE9"/>
<path id="Vector" d="M24.2441 20.0026L24.244 20.0024L20.5848 16.3461C21.4593 15.2094 21.9825 13.7872 21.9825 12.2413C21.9825 8.52182 18.9573 5.5 15.2413 5.5C11.5252 5.5 8.5 8.52182 8.5 12.2413C8.5 15.9607 11.5252 18.9825 15.2413 18.9825C16.7844 18.9825 18.2089 18.4593 19.3462 17.5847L23.0026 21.241C23.1733 21.4117 23.3971 21.498 23.6233 21.498C23.8496 21.498 24.0734 21.4117 24.2441 21.241C24.5868 20.8983 24.5868 20.3452 24.2441 20.0026ZM20.23 12.2413C20.23 14.9905 17.9905 17.23 15.2413 17.23C12.492 17.23 10.2525 14.9905 10.2525 12.2413C10.2525 9.49198 12.492 7.25251 15.2413 7.25251C17.9907 7.25251 20.23 9.48909 20.23 12.2413Z" fill="#023047" stroke="#023047"/>
</g>
</g>
</svg>
