<svg width="89" height="15" viewBox="0 0 89 15" fill="none" xmlns="http://www.w3.org/2000/svg">
<g id="Frame 26">
<path id="Star 2" d="M8.59998 0.2677L10.3961 5.79556H16.2084L11.5061 9.21197L13.3023 14.7398L8.59998 11.3234L3.89769 14.7398L5.69381 9.21197L0.991523 5.79556H6.80386L8.59998 0.2677Z" fill="#FB8500"/>
<path id="Star 3" d="M26.1 0.2677L27.7838 5.79556H33.2329L28.8245 9.21197L30.5084 14.7398L26.1 11.3234L21.6916 14.7398L23.3754 9.21197L18.9671 5.79556H24.4161L26.1 0.2677Z" fill="#FB8500"/>
<path id="Star 4" d="M43.6 0.2677L45.3961 5.79556H51.2084L46.5061 9.21197L48.3023 14.7398L43.6 11.3234L38.8977 14.7398L40.6938 9.21197L35.9915 5.79556H41.8039L43.6 0.2677Z" fill="#FB8500"/>
<path id="Star 5" d="M61.1 0.2677L62.7838 5.79556H68.2329L63.8245 9.21197L65.5084 14.7398L61.1 11.3234L56.6916 14.7398L58.3754 9.21197L53.9671 5.79556H59.4161L61.1 0.2677Z" fill="#FB8500"/>
<path id="Star 6" d="M78.6 1.88573L79.9206 5.95007L80.0328 6.29556H80.3961H84.6696L81.2123 8.80746L80.9184 9.02099L81.0306 9.36648L82.3512 13.4308L78.8939 10.9189L78.6 10.7054L78.3061 10.9189L74.8488 13.4308L76.1693 9.36648L76.2816 9.02099L75.9877 8.80746L72.5304 6.29556H76.8039H77.1671L77.2794 5.95007L78.6 1.88573Z" fill="#FB8500" stroke="#FB8500"/>
</g>
</svg>
